<svg width="85" height="85" viewBox="0 0 85 85" fill="none" xmlns="http://www.w3.org/2000/svg">
<rect width="84" height="84" rx="4.5" transform="matrix(0.999996 -0.00297174 0.00321902 0.999995 0.0378571 0.626892)" fill="#D7E7FF"/>
<path d="M12.4399 57.4873C19.7054 57.4873 20.6962 57.4873 20.6962 55.1205C20.6962 52.2583 19.7054 52.1482 18.1092 51.873C16.6781 51.6528 16.3479 51.4877 17.0084 50.2217C17.5038 49.231 17.5588 49.286 18.2743 47.965C19.1 46.4238 18.4945 46.7541 25.9252 46.7541C34.0164 46.7541 33.6861 46.2037 34.4567 47.91C34.6769 48.4054 35.1723 49.1209 35.7227 50.3318C36.2731 51.4327 36.163 51.5978 34.4017 51.873C32.0349 52.1482 31.3744 53.0839 31.3744 55.1205C31.3744 57.4873 32.255 57.4873 39.7958 57.4873C49.0429 57.4873 49.263 57.7075 49.263 54.2949C49.263 52.6436 48.8227 52.4785 46.5109 51.7629C44.8046 51.2675 45.0798 50.7722 44.1992 48.7907C41.6122 43.0663 38.1996 35.9108 33.521 26.0583C31.6496 22.0402 30.7139 21.0494 25.8151 21.0494C23.008 21.0494 21.687 22.2053 21.687 24.1318C21.687 24.6272 21.797 25.1226 21.797 25.7831C21.742 27.1041 21.1365 28.8104 20.421 30.2965C17.9991 35.5255 13.2655 43.4516 10.7886 48.8457C9.85291 50.9373 9.52265 51.4327 7.92643 51.873C5.94492 52.4785 5.22937 52.8087 5.22937 54.6802C5.22937 57.7075 6.77055 57.4873 12.4399 57.4873ZM26.2554 41.4701C21.4117 41.4701 20.0357 42.5159 21.5218 39.8188C21.9622 38.9932 24.384 33.7642 25.65 31.2322C25.9252 30.6818 25.9252 30.2965 26.4206 30.2965C26.916 30.2965 27.026 30.7368 27.3012 31.2873C28.347 33.3238 30.4386 38.1125 31.2643 39.4885C32.9706 42.2406 31.1542 41.4701 26.2554 41.4701Z" fill="#999491"/>
<path d="M60.2809 58.3129C63.4183 58.3129 65.3448 57.2121 66.6658 55.5608C67.4364 54.6251 67.6015 54.1297 68.207 54.1297C68.8124 54.1297 68.8124 54.7352 69.9133 56.1663C70.9591 57.4873 72.5553 58.2028 74.6469 58.2028C78.1696 58.2028 79.7108 55.2306 79.7108 53.3591C79.7108 52.2583 79.3805 52.0932 78.4448 52.0932H77.2889C76.2982 52.0932 75.5826 51.5978 75.5826 50.1667C75.5826 48.7907 76.1881 42.736 76.2431 39.4335C76.2431 32.9936 72.2801 29.9112 64.6292 29.9112C60.0057 29.9112 57.0885 30.6818 54.4465 32.3881C52.7401 33.489 51.4191 35.0852 51.4191 37.0116C51.4191 39.2684 52.9053 40.3142 55.3271 40.3142C57.4738 40.3142 58.4095 39.1583 59.5103 37.5621C60.446 36.2961 61.1065 35.2503 63.5834 35.2503C67.2713 35.2503 68.4271 36.2411 68.4271 40.2041C68.4271 41.9104 68.3171 42.5159 67.1061 42.5159C66.0603 42.5159 64.2439 42.4058 61.2166 42.4058C54.8317 42.4058 51.4742 45.8184 51.4742 50.6621C51.4742 54.6251 53.5107 58.3129 60.2809 58.3129ZM63.033 52.6436C60.2259 52.6436 58.9599 51.4327 58.9599 49.6713C58.9599 47.4146 60.7763 46.0936 64.7944 46.0936C67.7116 46.0936 68.1519 45.9285 68.1519 47.5797C68.1519 50.3318 66.1154 52.6436 63.033 52.6436Z" fill="#999491"/>
<line y1="30.4873" x2="85" y2="30.4873" stroke="black" stroke-width="2" stroke-dasharray="2 3"/>
<line y1="20.4873" x2="85" y2="20.4873" stroke="black" stroke-width="2"/>
<line y1="66.4873" x2="85" y2="66.4873" stroke="black" stroke-width="2"/>
<line y1="57.4873" x2="85" y2="57.4873" stroke="black" stroke-width="2" stroke-dasharray="2 3"/>
</svg>