<svg width="361" alt="Very Cool" height="45" viewBox="0 0 361 45" fill="none" xmlns="http://www.w3.org/2000/svg">
<title>Very Cool Studio</title>
<path d="M17.3896 42.6002L0 1.95508H18.7643L32.6326 36.18L30.7754 42.6002H17.3896Z" fill="currentColor"/>
<path fill-rule="evenodd" clip-rule="evenodd" d="M42.8869 15.9417C44.1003 14.721 44.8863 12.834 44.8863 10.1854C44.8863 7.76989 44.2239 5.86078 43.0566 4.57756C41.9209 3.32909 40.0687 2.40975 37.1178 2.40975C34.4836 2.40975 32.5968 3.20723 31.3718 4.43312C30.1466 5.65919 29.3492 7.54816 29.3492 10.1854C29.3492 12.8378 30.1314 14.7241 31.341 15.9431C32.5479 17.1594 34.4278 17.9611 37.1178 17.9611C39.7937 17.9611 41.6754 17.1605 42.8869 15.9417ZM37.1178 20.1053C43.3404 20.1053 47.0305 16.3401 47.0305 10.1854C47.0305 4.60999 43.9675 0.265503 37.1178 0.265503C30.9675 0.265503 27.205 4.03073 27.205 10.1854C27.205 16.3401 30.871 20.1053 37.1178 20.1053Z" fill="currentColor"/>
<path d="M50.1426 1.95508H64.855V42.6002H50.1426V1.95508Z" fill="currentColor"/>
<path d="M82.269 19.5261C73.2969 19.5261 69.1726 14.1437 69.1002 2.14813H84.6568V19.5261H82.269Z" fill="currentColor"/>
<path fill-rule="evenodd" clip-rule="evenodd" d="M69.0991 42.7933H84.6557V25.4153H82.2679C73.846 25.4153 69.7168 30.094 69.1622 40.649C69.126 41.3386 69.105 42.0532 69.0991 42.7933ZM71.3097 40.649H82.5114V27.5596H82.2679C78.2292 27.5596 75.6965 28.7292 74.0614 30.8775C72.5469 32.8672 71.5674 35.991 71.3097 40.649Z" fill="currentColor"/>
<path d="M90.2036 1.95508H104.602V42.6002H90.2036V1.95508" fill="currentColor"/>
<path fill-rule="evenodd" clip-rule="evenodd" d="M124.262 12.1149L124.262 12.1134C124.304 8.74674 123.344 6.95338 121.952 5.89462C120.422 4.7314 117.923 4.09933 114.178 4.09933H111.016V18.3956H114.178C117.937 18.3956 120.465 17.8991 122.02 16.9347C123.358 16.104 124.232 14.7645 124.262 12.1164L124.262 12.1149ZM114.178 20.5398C121.872 20.5398 126.334 18.5848 126.406 12.1405C126.502 4.5135 121.968 1.95508 114.178 1.95508H108.872V20.5398H114.178Z" fill="currentColor"/>
<path d="M124.356 43.1312C114.515 43.1312 109.305 37.9902 109.305 28.3117V24.2809H114.684C119.484 24.2809 122.812 25.3188 124.959 27.5393C127.105 29.7598 128.215 33.1871 128.118 37.9902L128.022 43.1312H124.356Z" fill="currentColor"/>
<path d="M156.868 42.6243L156.772 27.9013H156.506L156.675 27.4669L144.302 1.95508H126.768L142.517 32.7768V42.6243H156.868" fill="currentColor"/>
<path fill-rule="evenodd" clip-rule="evenodd" d="M168.629 15.102C169.785 13.945 170.546 12.1446 170.546 9.58201C170.546 7.01938 169.785 5.21902 168.629 4.06202C167.473 2.90521 165.675 2.14425 163.115 2.14425C160.556 2.14425 158.758 2.90521 157.602 4.06202C156.445 5.21902 155.685 7.01938 155.685 9.58201C155.685 12.1446 156.445 13.945 157.602 15.102C158.758 16.2588 160.556 17.0198 163.115 17.0198C165.675 17.0198 167.473 16.2588 168.629 15.102ZM163.115 19.164C169.097 19.164 172.691 15.5677 172.691 9.58201C172.691 3.59627 169.097 0 163.115 0C157.134 0 153.54 3.59627 153.54 9.58201C153.54 15.5677 157.134 19.164 163.115 19.164Z" fill="currentColor"/>
<path d="M202.886 43.9035H203.995V1.71368H202.886C191.502 1.71368 185.858 8.73727 186.027 23.0258C186.22 37.073 191.695 43.9035 202.886 43.9035Z" fill="currentColor"/>
<path fill-rule="evenodd" clip-rule="evenodd" d="M223.273 16.2755C224.498 15.0495 225.296 13.1605 225.296 10.5232C225.296 7.88599 224.498 5.99702 223.273 4.77095C222.048 3.54506 220.161 2.74758 217.527 2.74758C214.882 2.74758 212.997 3.53368 211.777 4.74781C210.559 5.96028 209.759 7.84414 209.759 10.5232C209.759 13.2023 210.559 15.0862 211.777 16.2987C212.997 17.5128 214.882 18.2989 217.527 18.2989C220.161 18.2989 222.048 17.5014 223.273 16.2755ZM217.527 20.4432C223.677 20.4432 227.44 16.6779 227.44 10.5232C227.44 4.36855 223.677 0.603333 217.527 0.603333C211.377 0.603333 207.614 4.29615 207.614 10.5232C207.614 16.7503 211.377 20.4432 217.527 20.4432Z" fill="currentColor"/>
<path d="M208.024 43.0587V37.6523C208.024 28.3116 211.618 24.2085 219.746 24.2085H220.083L224.521 24.305V27.9979C224.521 34.8525 222.302 42.9863 211.425 42.9863L208.024 43.0587Z" fill="currentColor"/>
<path d="M246.348 43.9035H247.457V1.71368H246.348C234.964 1.71368 229.32 8.73727 229.489 23.0258C229.658 36.9764 235.133 43.9035 246.348 43.9035Z" fill="currentColor"/>
<path fill-rule="evenodd" clip-rule="evenodd" d="M252.161 1.71368H253.27C253.621 1.71368 253.966 1.72019 254.305 1.73323C264.823 2.13731 269.966 8.81428 270.129 22.4224C270.293 36.2946 264.996 43.5462 254.305 43.9794C253.966 43.9931 253.621 44 253.27 44H252.161V1.71368ZM254.305 41.8334C258.952 41.6283 262.188 40.0201 264.342 37.2595C266.727 34.2014 268.067 29.3763 267.985 22.4482C267.903 15.6369 266.529 11.0338 264.181 8.156C262.064 5.56147 258.904 4.07059 254.305 3.87904V41.8334Z" fill="currentColor"/>
<path d="M291.162 43.9035H292.271V1.71368H291.162C279.778 1.71368 274.134 8.73727 274.303 23.0258C274.496 36.9764 279.971 43.9035 291.162 43.9035Z" fill="currentColor"/>
<path fill-rule="evenodd" clip-rule="evenodd" d="M296.973 1.71368H298.082C298.433 1.71368 298.777 1.72019 299.117 1.73323C309.634 2.13732 314.777 8.81428 314.941 22.4224C315.105 36.2946 309.808 43.5462 299.117 43.9794C298.777 43.9931 298.432 44 298.082 44H296.973V1.71368ZM299.117 41.8334C303.763 41.6283 306.999 40.0201 309.153 37.2595C311.539 34.2014 312.879 29.3763 312.797 22.4482M299.117 41.8334V3.87904C303.716 4.0706 306.875 5.56148 308.993 8.156C311.341 11.0338 312.715 15.6372 312.797 22.4482" fill="currentColor"/>
<path d="M319.573 2.38947H334.02V43.3001H319.573V2.38947Z" fill="currentColor"/>
<path fill-rule="evenodd" clip-rule="evenodd" d="M337.781 43.0587H353V22.8569H351.891C351.54 22.8569 351.195 22.869 350.856 22.8931C343.232 23.4351 338.472 30.0269 337.849 40.9145C337.81 41.6118 337.787 42.3267 337.781 43.0587ZM339.997 40.9145H350.856V25.0437C347.692 25.3095 345.187 26.8147 343.355 29.4348C341.521 32.0574 340.3 35.9006 339.997 40.9145Z" fill="currentColor"/>
</svg>