<svg width="42" height="44" viewBox="0 0 42 44" fill="none" xmlns="http://www.w3.org/2000/svg">
<path class="fill-black" d="M16.8627 43.3002H17.9721V1.11035H16.8627C5.47863 1.11035 -0.165153 8.13394 0.00367807 22.4225C0.196628 36.4697 5.67158 43.3002 16.8627 43.3002Z" fill="#000000"/>
<path class="fill-black" fill-rule="evenodd" clip-rule="evenodd" d="M37.2499 15.6722C38.4751 14.4461 39.2725 12.5572 39.2725 9.91991C39.2725 7.28266 38.4751 5.39369 37.2499 4.16762C36.0249 2.94173 34.1381 2.14425 31.504 2.14425C28.8585 2.14425 26.9737 2.93035 25.754 4.14448C24.5359 5.35695 23.7354 7.24081 23.7354 9.91991C23.7354 12.599 24.5359 14.4829 25.754 15.6953C26.9737 16.9095 28.8585 17.6956 31.504 17.6956C34.1381 17.6956 36.0249 16.8981 37.2499 15.6722ZM31.504 19.8398C37.6542 19.8398 41.4167 16.0746 41.4167 9.91991C41.4167 3.76522 37.6542 0 31.504 0C25.3537 0 21.5912 3.69281 21.5912 9.91991C21.5912 16.147 25.3537 19.8398 31.504 19.8398Z" fill="#000000"/>
<path class="fill-black" d="M22.0007 42.4552V37.0488C22.0007 27.7081 25.5944 23.605 33.7224 23.605H34.0601L38.4979 23.7015V27.3943C38.4979 34.249 36.279 42.3828 25.4015 42.3828L22.0007 42.4552Z" fill="#000000"/>
</svg>