<svg width="62" height="51" viewBox="0 0 62 51" fill="none" xmlns="http://www.w3.org/2000/svg">
<path class="stroke-black" d="M52.4126 16.7525C54.8052 15.4345 57.8134 14.0527 59.5424 11.7193C61.2376 9.43153 57.7607 10.6336 56.6174 10.7982C55.3169 10.9854 54.3321 11.4232 52.961 11.4232C51.1212 11.4232 54.8235 9.38204 55.5814 8.59408C56.4614 7.67916 57.3888 6.17764 58.1713 5.50178C59.5154 4.3408 54.0853 5.00108 53.2353 5.71491C51.1877 7.43437 49.0749 8.38174 47.9031 5.97809C46.5055 3.11094 40.9244 1.32021 38.1834 2.245C32.5111 4.15883 27.9046 7.5061 27.7325 14.3839C27.6957 15.8546 28.8772 20.1735 27.9153 20.2724C23.737 20.7021 20.6658 16.556 16.9159 14.9761C13.6186 13.5868 11.4646 12.3258 8.84151 10.0086C7.88017 9.15942 6.19642 8.79793 5.00238 8.42959C4.38682 8.23971 5.85971 10.1242 6.12975 10.5679C7.13299 12.2162 8.35135 13.5915 9.63371 14.9761C10.9162 16.3607 12.3414 17.6363 13.5947 18.9895C15.2424 20.7684 8.94742 18.5289 6.61725 18.5289C5.28791 18.5289 3.71846 18.3128 2.53437 17.6736C0.305187 16.4702 5.63814 22.0253 7.74462 23.4634C10.0531 25.0395 12.2692 26.7025 14.5697 28.2993C15.6664 29.0604 16.695 29.8617 17.7385 30.7007C18.169 31.0468 19.6768 31.556 19.1401 31.556C16.6659 31.556 14.0958 30.9639 11.5533 30.9639C8.85392 30.9639 13.7268 35.1024 14.9049 35.701C18.0534 37.3007 21.5655 38.2347 24.8379 39.4842C24.9635 39.5321 30.9307 40.9109 28.8294 41.0303C25.9585 41.1934 23.3222 43.0659 20.6027 43.8594C18.5284 44.4647 16.3714 45.2365 14.2955 45.7345C13.738 45.8683 12.3428 45.4212 11.9494 45.899C11.432 46.5274 16.5033 48.237 16.9159 48.3663C21.4576 49.7899 27.3955 48.5797 31.6935 47.0518C38.4763 44.6405 44.3915 40.9796 48.3297 34.4194C51.0095 29.9555 49.3902 20.2724 45.8537 14.9761" />
</svg>
