<svg width="52" height="55" viewBox="0 0 52 55" fill="none" xmlns="http://www.w3.org/2000/svg">
<path fill-rule="evenodd" clip-rule="evenodd" d="M45.8751 1.67335C48.401 2.544 50.5985 4.10406 51.3647 6.81662C51.6613 7.86655 51.4259 9.10556 51.0807 10.1482C50.7134 11.2576 50.1239 12.4341 49.4053 13.4864C48.6926 14.53 47.7986 15.5312 46.7837 16.2164C46.2447 16.5802 45.6175 16.8883 44.9365 17.0334C44.6584 17.4657 44.4634 17.7969 44.3619 18.0485C43.9274 19.1252 43.0387 19.8571 42.1616 20.3545C41.2676 20.8613 40.2204 21.2191 39.2048 21.4749C39.1156 21.4974 39.0262 21.5192 38.9366 21.5404C39.6734 24.25 39.7827 27.12 39.4711 29.3181C39.1305 31.7203 38.3823 35.2566 36.8528 38.2765C35.3361 41.271 32.844 44.1273 28.9008 44.3305C25.9409 44.483 23.0236 44.2032 20.5473 43.44C18.096 42.6845 15.9016 41.3976 14.6635 39.4006C11.6173 34.4871 10.6591 28.3659 11.1398 22.8681C11.4072 19.8096 12.918 16.9469 14.8999 14.6756C16.8822 12.404 19.4384 10.6042 21.9851 9.73287C22.7689 9.46469 23.6217 9.88269 23.8899 10.6665C24.1581 11.4503 23.7401 12.3031 22.9563 12.5713C20.9787 13.2479 18.8491 14.7127 17.1604 16.648C15.4713 18.5837 14.3259 20.8703 14.1284 23.1294C13.6892 28.1528 14.5889 33.5867 17.2133 37.8198C17.9192 38.9585 19.3395 39.9285 21.4309 40.573C23.4972 41.2099 26.0505 41.4733 28.7464 41.3344C31.0913 41.2136 32.8494 39.5411 34.1765 36.921C35.4907 34.3262 36.1796 31.1621 36.5008 28.897C36.7714 26.9883 36.6534 24.3963 35.9582 22.032C35.0989 22.1204 34.3328 22.1562 33.7648 22.1562C32.7965 22.1562 30.8718 22.0606 29.1393 21.5618C28.2779 21.3138 27.3446 20.9333 26.5999 20.32C25.8154 19.6739 25.206 18.7302 25.206 17.4872C25.206 16.5166 25.4618 15.6668 25.9534 14.9731C26.4377 14.2897 27.083 13.8526 27.716 13.5812C28.9343 13.0589 30.2783 13.0717 31.0923 13.2128C34.4373 13.7924 36.5911 16.0756 37.8805 18.7029C38.0788 18.6607 38.2764 18.6151 38.4719 18.5658C39.3457 18.3457 40.1096 18.0693 40.6819 17.7448C41.271 17.4108 41.5038 17.1142 41.5798 16.9259C41.661 16.7248 41.7641 16.5137 41.8807 16.2984C41.4993 15.9562 41.2069 15.5484 40.9934 15.1724C40.5739 14.4333 40.3033 13.5515 40.2213 12.6962C40.142 11.8675 40.2229 10.8678 40.7333 10.0268C41.3139 9.07008 42.325 8.53263 43.5629 8.59818C45.0279 8.67576 46.4864 9.07647 47.1598 10.358C47.2761 10.5794 47.3559 10.8042 47.4065 11.0286C47.7575 10.4137 48.0412 9.78389 48.2328 9.20529C48.5273 8.31557 48.5231 7.79274 48.4777 7.63211C48.0847 6.24082 46.9374 5.21274 44.8975 4.50959C42.8452 3.80218 40.1448 3.52438 37.1769 3.50156C34.2302 3.47889 31.1398 3.70659 28.3492 3.94522C27.8694 3.98625 27.3956 4.02792 26.9313 4.06877C24.7465 4.26094 22.7723 4.4346 21.3791 4.4346C16.801 4.4346 11.5582 5.10979 8.01281 7.42193C5.21293 9.24787 4.04718 12.1249 3.65913 15.5774C3.35531 18.2805 3.54441 21.1175 3.72713 23.8587C3.78249 24.6893 3.83727 25.5111 3.87757 26.3177C4.18381 32.4475 5.3166 39.5507 8.71442 44.4938C9.42508 45.5277 10.6225 46.4665 12.0983 47.3357C13.3943 48.0991 14.7847 48.7421 16.0723 49.3375C16.2403 49.4152 16.4065 49.492 16.5705 49.5682C17.4545 49.979 18.71 50.2305 20.1836 50.4201C20.7338 50.4908 21.353 50.5561 21.9764 50.6218C22.8589 50.7148 23.75 50.8088 24.4665 50.9205C27.8741 51.452 31.0077 51.6374 34.3746 51.3952C35.1529 51.3392 35.9729 51.3292 36.733 51.3199C37.0952 51.3155 37.4438 51.3113 37.7678 51.3023C38.8338 51.2727 39.7934 51.1944 40.7069 50.9526C44.4255 49.968 46.1528 47.9832 47.0458 45.4924C47.9984 42.8357 48.0224 39.5601 48.0224 35.9495V20.0393C48.0224 19.2109 48.694 18.5393 49.5224 18.5393C50.3509 18.5393 51.0224 19.2109 51.0224 20.0393V36.0367C51.0225 39.4881 51.0226 43.2896 49.8698 46.5049C48.6479 49.9132 46.1594 52.6123 41.4747 53.8526C40.2253 54.1834 38.9925 54.2695 37.851 54.3011C37.4246 54.313 37.0259 54.3175 36.6411 54.3219C35.9395 54.33 35.2839 54.3375 34.5899 54.3874C30.9616 54.6484 27.5981 54.4452 24.0042 53.8847C23.3087 53.7762 22.5953 53.7026 21.8155 53.6221C21.1943 53.5579 20.531 53.4895 19.8009 53.3956C18.2992 53.2024 16.6425 52.9097 15.3063 52.2889C15.1486 52.2156 14.9856 52.1403 14.8182 52.0629C13.543 51.4737 12.0098 50.7653 10.5758 49.9207C8.96418 48.9715 7.32176 47.7638 6.24216 46.1932C2.34506 40.5237 1.19257 32.6977 0.881304 26.4674C0.846321 25.7672 0.79601 25.0181 0.743391 24.2347C0.556651 21.4544 0.340837 18.2412 0.677905 15.2423C1.11779 11.3287 2.52524 7.41907 6.37405 4.90907C10.6842 2.09821 16.6753 1.4346 21.3791 1.4346C22.6273 1.4346 24.427 1.27669 26.6101 1.08515C27.0869 1.04332 27.582 0.999876 28.0936 0.956128C30.8943 0.716638 34.1035 0.47783 37.2 0.501645C40.2752 0.525297 43.3616 0.806956 45.8751 1.67335ZM43.5738 13.6397C43.8453 13.2086 44.0785 12.8056 44.248 12.4332C44.4051 12.0878 44.4534 11.884 44.469 11.7808C44.3363 11.7216 44.0323 11.6272 43.4043 11.594C43.3501 11.5911 43.3133 11.5936 43.2904 11.5967C43.2414 11.6899 43.1639 11.9534 43.2077 12.4102C43.2491 12.8431 43.3868 13.2914 43.5738 13.6397ZM34.6927 19.1259C33.7077 17.5495 32.3534 16.476 30.58 16.1687C30.1566 16.0953 29.4355 16.1081 28.8981 16.3385C28.6532 16.4435 28.498 16.571 28.4012 16.7076C28.3117 16.8339 28.206 17.0596 28.206 17.4872C28.206 17.6424 28.2518 17.794 28.5071 18.0043C28.8022 18.2473 29.2931 18.4843 29.9693 18.6789C31.3122 19.0655 32.9169 19.1562 33.7648 19.1562C34.0246 19.1562 34.3394 19.1468 34.6927 19.1259Z" fill="black"/>
</svg>
