<svg width="52" height="55" viewBox="0 0 52 55" fill="none" xmlns="http://www.w3.org/2000/svg">
<path class="stroke-black" d="M22.4706 11.1521C17.9464 12.7001 13.099 17.6812 12.634 22.9987C12.1741 28.2594 13.103 34.0369 15.9383 38.6102C17.8824 41.746 23.1678 43.1238 28.8235 42.8324C35.1116 42.5085 37.3241 33.7748 37.9859 29.1076C38.6678 24.2979 37.1309 15.7816 30.8361 14.6907C29.5987 14.4763 26.7059 14.6907 26.7059 17.4872C26.7059 20.2837 31.9486 20.6562 33.7647 20.6562C36.0403 20.6562 41.9499 20.017 42.9708 17.4872C43.8806 15.2324 48.9365 10.3848 43.4835 10.0961C40.6229 9.94462 41.6266 14.9878 43.4835 15.5324C46.7041 16.4769 50.605 9.64548 49.9212 7.22437C47.6027 -0.983324 27.7994 2.93461 21.379 2.93461C16.7381 2.93461 11.1211 3.60401 7.19336 6.1655C0.544674 10.5014 2.04694 19.7388 2.37936 26.3925C2.68812 32.5726 3.83076 40.0372 7.47821 45.3435C9.26848 47.948 13.1579 49.6366 15.9383 50.9285C18.1585 51.9602 21.7628 52.017 24.2353 52.4026C27.736 52.9486 30.9846 53.1429 34.4822 52.8913C36.7061 52.7313 38.9278 52.9753 41.0907 52.4026C49.494 50.1778 49.5224 43.0346 49.5224 35.9495C49.5224 30.6461 49.5224 25.3427 49.5224 20.0393"/>
</svg>
