<svg width="85" height="85" viewBox="0 0 85 85" fill="none" xmlns="http://www.w3.org/2000/svg">
<rect width="84.6587" height="83.8012" rx="4.5" transform="matrix(0.999997 -0.00235219 0.00406688 0.999992 0 0.686768)" fill="#D7E7FF"/>
<path d="M40.1801 19.3919L40.1801 65.9837L39.0493 65.9837C32.8649 65.9837 28.2764 64.0975 25.2039 60.2857C22.1279 56.4695 20.5582 50.7071 20.4513 42.9275C20.3578 35.0146 21.8745 29.1325 24.9737 25.2299C28.0695 21.3316 32.758 19.3919 39.0493 19.3919L40.1801 19.3919Z" fill="#999491" stroke="#999491" stroke-width="1.02266"/>
<path fill-rule="evenodd" clip-rule="evenodd" d="M61.7913 35.5733C63.1919 34.1717 64.0886 32.0256 64.0886 29.0627C64.0886 26.0998 63.1919 23.9538 61.7913 22.5521C60.3908 21.1506 58.2471 20.2538 55.2876 20.2538C52.3164 20.2538 50.1748 21.1374 48.7797 22.5261C47.3864 23.9131 46.4865 26.0539 46.4865 29.0627C46.4865 32.0716 47.3864 34.2124 48.7797 35.5994C50.1748 36.988 52.3164 37.8717 55.2876 37.8717C58.2471 37.8717 60.3908 36.9748 61.7913 35.5733ZM55.2876 40.0645C62.1086 40.0645 66.2815 35.8887 66.2815 29.0627C66.2815 22.2368 62.1086 18.0609 55.2876 18.0609C48.4665 18.0609 44.2937 22.1565 44.2937 29.0627C44.2937 35.969 48.4665 40.0645 55.2876 40.0645Z" fill="#999491"/>
<path d="M48.5194 64.9666L48.5173 64.9666L44.8474 65.0448L44.8474 59.1505C44.8474 53.9802 45.8426 50.2821 47.9425 47.8763C50.0396 45.4736 53.2563 44.3402 57.7478 44.3402L58.1212 44.3402L62.9445 44.4451L62.9445 48.4431C62.9445 52.2367 62.3299 56.3691 60.2226 59.5505C58.1202 62.7246 54.5224 64.9666 48.5194 64.9666Z" fill="#999491" stroke="#999491" stroke-width="1.02266"/>
<path d="M54.1086 31L84.5491 30.9283L53.9845 0.559631L54.1086 31Z" fill="#D7E7FF"/>
<path d="M53.9845 0.559631L54.0882 26.0001C54.0995 28.7615 56.3471 30.9948 59.1086 30.9882L84.5491 30.9283" stroke="black" stroke-width="2" stroke-linejoin="round"/>
</svg>
