<svg width="62" height="51" viewBox="0 0 62 51" fill="none" xmlns="http://www.w3.org/2000/svg">
<path fill-rule="evenodd" clip-rule="evenodd" d="M44.0564 1.27869C46.1051 2.01828 48.298 3.36476 49.2515 5.32081C49.4521 5.73229 49.6206 5.85305 49.6787 5.88577C49.7222 5.91028 49.8027 5.9442 50.0001 5.91211C50.5012 5.83063 51.2739 5.40328 52.2707 4.56621C52.5824 4.30444 52.9618 4.14422 53.2259 4.04647C53.5278 3.9347 53.8667 3.83866 54.208 3.75771C54.8913 3.59561 55.6815 3.47114 56.4002 3.41059C57.0531 3.35557 57.8671 3.33154 58.4785 3.49699C58.6467 3.5425 58.8896 3.62498 59.1293 3.78745C59.3764 3.95488 59.7165 4.27753 59.8404 4.80576C59.965 5.33687 59.8025 5.78301 59.6465 6.05383C59.4962 6.31469 59.3023 6.50696 59.1518 6.63696C58.9 6.85447 58.5678 7.2643 58.104 7.87017C58.0619 7.92515 58.0187 7.98169 57.9746 8.03945C57.7025 8.39602 57.3946 8.79946 57.0762 9.17393C57.1944 9.14735 57.327 9.11768 57.4764 9.08519C57.9344 8.98558 58.5364 8.86432 59.0786 8.84053C59.3455 8.82882 59.7002 8.83456 60.0572 8.9317C60.4135 9.02864 60.9772 9.27817 61.2972 9.90481C61.6121 10.5213 61.4994 11.1304 61.3664 11.511C61.2304 11.9001 61.0008 12.2707 60.7477 12.6123C59.726 13.9911 58.3674 15.037 57.0285 15.8842C56.0656 16.4935 55.0324 17.0466 54.107 17.542C53.7659 17.7247 53.4393 17.8994 53.1364 18.0663C52.4108 18.466 51.4985 18.2018 51.0988 17.4762C50.6991 16.7506 50.9633 15.8383 51.6889 15.4386C52.0562 15.2363 52.4221 15.0405 52.7861 14.8456C53.6786 14.3678 54.5601 13.896 55.4243 13.3491C55.9722 13.0024 56.4812 12.6441 56.9399 12.2658C56.9021 12.2721 56.8657 12.2779 56.8311 12.2829C56.41 12.3435 56.0495 12.4297 55.6256 12.5311C55.4768 12.5667 55.3203 12.6042 55.1506 12.643C54.5283 12.7855 53.8123 12.9232 52.9611 12.9232C52.7856 12.9232 52.5837 12.9118 52.3774 12.8694C52.1854 12.83 51.8805 12.7424 51.5905 12.5157C51.2541 12.2527 51.0057 11.8513 50.9611 11.3673C50.9224 10.9476 51.0511 10.6143 51.1419 10.4298C51.3155 10.0769 51.5844 9.80448 51.7485 9.64851C51.9429 9.46376 52.1662 9.28184 52.3818 9.1158C52.7157 8.85856 53.1072 8.58222 53.4528 8.3382C53.5474 8.2714 53.6386 8.20702 53.7243 8.14611C53.9337 7.99717 54.1138 7.86666 54.2598 7.75402C54.3321 7.69825 54.3896 7.65189 54.4337 7.61427C54.4554 7.59575 54.4719 7.58108 54.4838 7.57006C54.4948 7.55993 54.4999 7.55476 54.5004 7.55425C54.7522 7.29245 55.0148 6.96567 55.3057 6.58934C55.1658 6.61674 55.0298 6.646 54.9004 6.67669C54.6341 6.73989 54.4198 6.80347 54.2673 6.85991C54.2049 6.88303 54.1655 6.90034 54.1442 6.91023C53.1031 7.77768 51.8177 8.65595 50.4815 8.87322C49.7483 8.99245 48.9529 8.91999 48.2067 8.49984C47.4752 8.08789 46.9401 7.42571 46.5549 6.63537C46.1107 5.72426 44.8143 4.7418 43.0377 4.10044C41.2714 3.46276 39.5732 3.35919 38.663 3.66628C35.9409 4.5847 33.6209 5.80167 31.9709 7.49863C30.3584 9.15699 29.3089 11.3505 29.232 14.4214C29.2266 14.6389 29.2711 15.0573 29.3647 15.6914C29.3947 15.8942 29.4297 16.1197 29.4663 16.3553C29.5318 16.7767 29.6023 17.2303 29.6576 17.6439C29.7433 18.2852 29.8189 19.005 29.785 19.6024C29.7688 19.8878 29.722 20.292 29.5456 20.6767C29.3476 21.1084 28.8897 21.6802 28.0688 21.7646C25.4243 22.0365 23.2293 20.8381 21.4191 19.6234C20.9585 19.3142 20.5054 18.9914 20.0692 18.6791C20.0254 18.6477 19.9818 18.6165 19.9384 18.5854C19.5437 18.3027 19.1632 18.0301 18.7804 17.7674C17.9283 17.1828 17.1314 16.6945 16.3335 16.3584C13.5185 15.1723 11.4623 14.0534 9.28038 12.3319C9.7389 12.8721 10.2248 13.4068 10.7342 13.9568C11.3474 14.6188 11.9989 15.2592 12.6762 15.9243L12.6997 15.9474C13.3609 16.5966 14.0479 17.2712 14.6953 17.9702C14.8418 18.1283 15.0063 18.3289 15.1339 18.5657C15.2505 18.782 15.4337 19.2078 15.3413 19.7379C15.2338 20.355 14.8266 20.7378 14.4745 20.9277C14.1673 21.0934 13.8635 21.1415 13.6793 21.1603C13.2979 21.1991 12.8777 21.1595 12.5253 21.1121C12.147 21.0611 11.7255 20.983 11.2987 20.8962C10.8747 20.8099 10.4221 20.7102 9.97632 20.612L9.96072 20.6086C9.50505 20.5082 9.05495 20.4091 8.62218 20.3207C7.71875 20.1362 7.02807 20.0289 6.6173 20.0289C6.43309 20.0289 6.24204 20.0252 6.04577 20.017C7.01316 20.9554 7.98875 21.8138 8.59044 22.2246C9.83519 23.0744 11.1225 23.9994 12.3929 24.9122C13.4254 25.6541 14.4468 26.388 15.4251 27.067C16.5645 27.8579 17.6249 28.6846 18.6785 29.5317C18.6719 29.5264 18.6683 29.5236 18.6685 29.5233C18.6692 29.5222 18.7272 29.5599 18.8836 29.6378C19.006 29.6988 19.1301 29.7564 19.266 29.8195C19.3215 29.8453 19.3789 29.8719 19.439 29.9001C19.4461 29.9034 19.4538 29.907 19.462 29.9109C19.6014 29.976 19.8887 30.1103 20.0941 30.2606C20.1478 30.3 20.3163 30.4244 20.465 30.6313C20.5928 30.8091 21.0253 31.5402 20.5172 32.3387C20.319 32.6503 20.0595 32.811 19.9058 32.8872C19.7473 32.9657 19.6068 33.0014 19.5232 33.0188C19.3581 33.0531 19.2149 33.056 19.1402 33.056C17.8236 33.056 16.4974 32.9014 15.2638 32.7575L15.1986 32.7499C14.5551 32.6748 13.9347 32.6032 13.3286 32.5503C13.6848 32.8956 14.077 33.2403 14.4513 33.5448C15.0222 34.0093 15.4427 34.2917 15.5844 34.3637C17.0687 35.1179 18.6592 35.7253 20.3216 36.3085C20.8507 36.4941 21.3942 36.6796 21.9437 36.8671C23.0614 37.2485 24.2042 37.6385 25.3025 38.056C25.3473 38.0674 25.4106 38.0832 25.4935 38.1038L25.5557 38.1192C25.7197 38.1599 25.9345 38.2133 26.1785 38.2751C26.7282 38.4144 27.4418 38.6004 28.0915 38.7912C28.6787 38.9637 29.3984 39.1909 29.8349 39.4319C29.9347 39.487 30.1767 39.6246 30.384 39.8631C30.4919 39.9871 30.6845 40.2446 30.7531 40.6278C30.8337 41.0783 30.7092 41.5146 30.4573 41.8436C30.2442 42.1218 29.9904 42.2608 29.8552 42.3241C29.706 42.394 29.5685 42.4324 29.472 42.4548C29.2794 42.4996 29.0825 42.5183 28.9145 42.5279C27.7597 42.5935 26.5885 43.008 25.2551 43.5851C24.9721 43.7075 24.6766 43.8401 24.3716 43.9769C23.3256 44.446 22.1683 44.9652 21.0229 45.2994C20.3432 45.4977 19.6157 45.7275 18.8665 45.9641C18.1186 46.2002 17.3492 46.4432 16.5845 46.6685C16.9936 46.8132 17.2891 46.9113 17.3646 46.935C21.4216 48.2066 26.9656 47.1406 31.1911 45.6385C37.7768 43.2972 43.3448 39.809 47.0437 33.6474C48.1164 31.8606 48.4337 28.748 47.9375 25.2188C47.4494 21.7471 46.2222 18.229 44.6062 15.809C44.1462 15.1201 44.3318 14.1886 45.0207 13.7286C45.7097 13.2686 46.6411 13.4541 47.1012 14.1431C49.0218 17.0195 50.3726 20.9911 50.9083 24.8011C51.4359 28.5534 51.2229 32.5144 49.6158 35.1915C45.4384 42.1501 39.1759 45.9838 32.196 48.4652C27.8255 50.0189 21.4937 51.3732 16.4673 49.7976C16.2277 49.7225 14.8128 49.2478 13.5077 48.7047C12.8672 48.4382 12.1791 48.1251 11.6655 47.8105C11.431 47.6668 11.1009 47.4452 10.8486 47.1447C10.7223 46.9942 10.5169 46.7096 10.4411 46.3053C10.3506 45.8224 10.4763 45.3284 10.7914 44.9456C11.2441 44.3958 11.8597 44.2522 12.1949 44.2051C12.557 44.1543 12.919 44.1728 13.1739 44.192C13.3058 44.202 13.4365 44.2147 13.5472 44.2255L13.5571 44.2264C13.6765 44.238 13.7715 44.2472 13.8577 44.2534C13.9378 44.2592 13.9861 44.2603 14.0097 44.2605C15.2709 43.9548 16.5106 43.5621 17.7957 43.155C18.57 42.9098 19.3607 42.6593 20.1825 42.4195C21.1104 42.1487 22.0037 41.7487 23.0072 41.2993C23.345 41.1481 23.6953 40.9912 24.0635 40.8319C24.0788 40.8253 24.0941 40.8187 24.1094 40.8121C23.102 40.4322 22.0876 40.0862 21.0441 39.7303C20.4818 39.5384 19.911 39.3437 19.3284 39.1393C17.6295 38.5433 15.8897 37.8839 14.2255 37.0383C13.7781 36.811 13.1477 36.3517 12.558 35.8719C11.9396 35.3687 11.2491 34.7473 10.6748 34.1275C10.3881 33.8181 10.1105 33.4879 9.88193 33.1563C9.6686 32.8468 9.42575 32.4344 9.3142 31.9709C9.19557 31.4781 9.18458 30.6664 9.85185 30.0451C10.4008 29.534 11.1056 29.4639 11.5533 29.4639C12.3045 29.4639 13.0531 29.5117 13.7828 29.579C13.76 29.5632 13.7373 29.5473 13.7145 29.5315C12.6082 28.7637 11.5821 28.0252 10.5684 27.2957C9.36542 26.43 8.17996 25.5769 6.89889 24.7022C5.70338 23.886 3.75169 22.0375 2.41489 20.5991C1.76494 19.8997 1.13177 19.1621 0.81802 18.6273C0.741961 18.4976 0.615074 18.2662 0.548248 17.9873C0.506808 17.8144 0.315514 16.8204 1.23817 16.2451C1.60077 16.019 1.95718 15.9985 2.15051 16.0053C2.35429 16.0124 2.52486 16.0549 2.63668 16.0887C2.86071 16.1565 3.07272 16.2596 3.24697 16.3536C4.11599 16.8228 5.3979 17.0289 6.6173 17.0289C7.37161 17.0289 8.34161 17.2015 9.22237 17.3814C9.49925 17.4379 9.78105 17.4982 10.0602 17.559C9.55115 17.056 9.03302 16.5349 8.53327 15.9953C7.24411 14.6035 5.93591 13.1344 4.84847 11.3478C4.84839 11.3476 4.84777 11.3466 4.84653 11.3446L4.84048 11.3352C4.83509 11.3268 4.82789 11.3158 4.81859 11.3019C4.79973 11.2737 4.77571 11.2385 4.74592 11.1956C4.69521 11.1224 4.63626 11.0389 4.56815 10.9423C4.55484 10.9234 4.54118 10.904 4.52717 10.8842C4.36211 10.65 4.15538 10.3556 3.97426 10.0754C3.81927 9.83564 3.58967 9.46736 3.46746 9.12333C3.43305 9.02647 3.38491 8.87191 3.36402 8.68497C3.34602 8.52384 3.32505 8.14818 3.53724 7.74719C3.79962 7.25134 4.26226 6.99859 4.68589 6.93438C5.0306 6.88213 5.31178 6.95527 5.44458 6.99624C5.59896 7.04386 5.79243 7.09953 6.00753 7.16142C6.46535 7.29315 7.02115 7.45306 7.5065 7.6236C8.24924 7.88457 9.13271 8.26439 9.83463 8.88445C12.3151 11.0756 14.3234 12.256 17.4983 13.5937C18.5754 14.0475 19.5686 14.67 20.4776 15.2937C20.8871 15.5747 21.293 15.8654 21.684 16.1456C21.7281 16.1771 21.772 16.2086 21.8156 16.2399C22.2524 16.5526 22.6721 16.8513 23.0908 17.1323C24.425 18.0276 25.5896 18.6263 26.7668 18.77C26.7484 18.5588 26.7207 18.3154 26.6841 18.0413C26.632 17.6517 26.5719 17.2664 26.5107 16.8731C26.4727 16.6293 26.4342 16.3825 26.3969 16.1297C26.3094 15.5373 26.22 14.8643 26.233 14.3464C26.3283 10.5395 27.6681 7.62048 29.82 5.40729C31.9344 3.23271 34.7537 1.81912 37.7039 0.823713C39.5348 0.206005 41.9976 0.535411 44.0564 1.27869ZM4.84848 11.3478L4.84847 11.3478ZM12.6122 47.176C12.6136 47.1758 12.6151 47.1756 12.6167 47.1754C12.6042 47.1779 12.6017 47.1774 12.6122 47.176ZM25.2456 38.041C25.2461 38.0412 25.2495 38.0421 25.255 38.0437C25.2479 38.0417 25.245 38.0409 25.2456 38.041ZM11.4683 32.4689C11.4678 32.4685 11.4759 32.4669 11.4942 32.4656C11.478 32.4688 11.4688 32.4694 11.4683 32.4689ZM3.39528 17.0904C3.3955 17.0905 3.39795 17.0948 3.40195 17.1029C3.39706 17.0943 3.39506 17.0903 3.39528 17.0904ZM53.7501 11.8897C53.7501 11.8897 53.7512 11.8883 53.7537 11.8855C53.7514 11.8883 53.7502 11.8897 53.7501 11.8897Z" fill="black"/>
</svg>